<?xml version="1.0" standalone="no"?>
<!DOCTYPE svg PUBLIC "-//W3C//DTD SVG 20010904//EN"
 "http://www.w3.org/TR/2001/REC-SVG-20010904/DTD/svg10.dtd">
<svg version="1.0" xmlns="http://www.w3.org/2000/svg"
 width="175.000000pt" height="33.000000pt" viewBox="0 0 175.000000 33.000000"
 preserveAspectRatio="xMidYMid meet">

<g transform="translate(0.000000,33.000000) scale(0.100000,-0.100000)"
fill="#000000" stroke="none">
<path d="M828 243 c5 -54 -16 -71 -64 -54 -39 14 -64 3 -64 -29 0 -46 83 -59
126 -19 27 26 33 92 11 123 -11 15 -12 12 -9 -21z"/>
<path d="M103 259 c25 -15 25 -163 0 -178 -14 -8 -4 -10 42 -10 46 0 56 2 43
10 -12 6 -18 22 -18 44 0 33 2 35 35 35 60 0 96 57 59 94 -11 12 -36 16 -97
16 -61 -1 -77 -3 -64 -11z m115 -32 c4 -31 -12 -57 -34 -57 -10 0 -14 14 -14
46 0 41 2 45 23 42 16 -2 23 -11 25 -31z"/>
<path d="M313 259 c14 -8 17 -24 17 -89 0 -65 -3 -81 -17 -89 -14 -8 -4 -10
42 -10 46 0 56 2 43 10 -12 7 -18 22 -18 49 l0 40 45 0 45 0 0 -40 c0 -27 -6
-42 -17 -49 -14 -8 -4 -10 42 -10 46 0 56 2 43 10 -15 8 -18 25 -18 94 0 71 3
84 18 88 9 3 -10 5 -42 6 -51 1 -57 -1 -42 -12 12 -9 17 -23 14 -42 -3 -27 -7
-30 -45 -33 l-43 -3 0 40 c0 29 5 41 18 44 9 3 -10 5 -43 6 -45 0 -56 -2 -42
-10z"/>
<path d="M888 262 c17 -11 19 -156 2 -177 -11 -13 -2 -15 84 -15 l96 0 0 31 0
32 -25 -27 c-18 -20 -33 -26 -53 -24 -24 3 -27 8 -30 46 -3 36 0 42 16 42 11
0 27 -10 35 -22 16 -22 16 -22 16 20 1 41 -11 56 -23 27 -3 -8 -15 -15 -26
-15 -17 0 -20 6 -20 40 0 37 2 40 27 40 15 0 37 -10 50 -22 l23 -21 0 26 0 27
-92 0 c-51 0 -87 -4 -80 -8z"/>
<path d="M1103 259 c25 -15 25 -156 0 -175 -16 -12 -13 -13 27 -13 40 0 43 1
27 13 -15 11 -17 26 -15 75 l3 61 60 -75 c33 -41 65 -75 72 -75 10 0 13 23 13
83 0 85 4 100 30 110 8 3 -7 6 -34 6 -48 1 -48 1 -26 -17 18 -14 21 -26 18
-67 l-3 -49 -54 67 c-51 63 -57 67 -95 67 -33 -1 -37 -3 -23 -11z"/>
<path d="M1353 263 c14 -4 17 -17 17 -88 0 -69 -3 -86 -17 -94 -14 -8 -4 -10
42 -10 52 0 58 1 43 13 -14 11 -18 29 -18 89 0 62 3 78 18 86 13 8 2 10 -43
10 -33 -1 -52 -3 -42 -6z"/>
<path d="M1488 257 c22 -13 72 -78 72 -95 0 -5 -20 -28 -45 -51 l-45 -41 43 1
c23 0 36 3 30 6 -7 2 -13 10 -13 16 1 13 39 62 44 56 14 -19 36 -55 36 -60 0
-4 -8 -10 -17 -12 -10 -3 14 -5 52 -5 60 -1 67 0 48 11 -12 7 -35 31 -52 55
l-31 42 22 31 c13 17 34 37 48 45 24 13 24 13 -20 13 -29 1 -40 -2 -31 -8 11
-7 10 -13 -4 -35 -22 -32 -28 -33 -45 0 -12 22 -12 27 0 34 10 7 -7 10 -50 9
-58 0 -62 -1 -42 -12z"/>
<path d="M631 221 c-26 -26 -27 -57 -1 -98 50 -82 168 -81 212 1 10 18 8 18
-17 -2 -18 -15 -42 -22 -70 -22 -58 0 -78 23 -74 87 4 56 -15 69 -50 34z"/>
</g>
</svg>
